<?xml version="1.0" encoding="utf-8"?>
<!-- Generator: Adobe Illustrator 16.0.0, SVG Export Plug-In . SVG Version: 6.00 Build 0)  -->
<!DOCTYPE svg PUBLIC "-//W3C//DTD SVG 1.1//EN" "http://www.w3.org/Graphics/SVG/1.1/DTD/svg11.dtd">
<svg version="1.1" id="Layer_1" xmlns="http://www.w3.org/2000/svg" xmlns:xlink="http://www.w3.org/1999/xlink" x="0px" y="0px"
	 width="512px" height="512px" viewBox="0 0 512 512" enable-background="new 0 0 512 512" xml:space="preserve">
<path fill="#4B680B" d="M512,424.238c-7-8.515-15.135-17.623-20.867-24.392c-12.765-15.077-25.053-21.689-35.027-40.164
	c-9.016-16.694-19.759-26.569-33.23-35.962c-25.022-17.447-54.086-21.303-78.221-40.6c-14.291-11.425-25.595-19.737-42.3-19.603
	c-18.458,0.148-36.672,7.435-55.417,7.659c-49.85,0.596-101.127-6.064-147.391,21.786c-19.496,11.738-37.228,24.376-56.318,36.77
	C33.588,335.993,17,382.994,0,430.139V512h512V424.238z"/>
<g>
	<path fill="#130094" d="M143.979,102.678c-5.779,10.521-11.032,26.526-15.761,48.017c-3.904,17.61-5.704,28.28-5.404,32.011
		c-0.151,0.598-0.112,1.343,0.113,2.238c0.225,0.896,0.299,1.567,0.225,2.015c-0.525,3.506-1.539,5.373-3.039,5.597
		c-1.202,0.224-4.953-1.083-11.259-3.918c-6.53-2.761-10.02-4.812-10.471-6.155c-0.075-0.149-0.188-2.462-0.337-6.939
		c-3.229-9.85-5.366-19.848-6.418-29.997c-2.102,5.373-4.164,10.745-6.191,16.117c-1.952,5.821-2.853,11.604-2.701,17.349
		c-0.151,0.672-0.151,1.567,0,2.687c0.225,1.194,0.262,2.126,0.112,2.798c-0.676,3.207-1.728,5.037-3.153,5.484
		c-0.449,0.148-1.051,0.224-1.801,0.224c-3.453,0-7.355-0.784-11.707-2.35c-5.331-1.867-8.371-4.103-9.12-6.716
		c0.073-0.596,0-2.536-0.226-5.82c-3.528-12.76-5.893-24.325-7.092-34.698c-1.201-9.923-1.688-21.974-1.464-36.152
		c-0.676-3.506-0.864-5.708-0.563-6.604c0.976-3.207,2.326-4.774,4.053-4.701c1.952,0.075,5.066,1.231,9.345,3.47
		c4.279,2.239,6.566,4.029,6.867,5.373c0.074,0.447-0.038,2.574-0.338,6.38c-0.3,3.433-0.45,6.603-0.45,9.513
		c0,6.344,1.088,16.716,3.266,31.116l15.761-49.136c0.149-0.969,0.601-2.312,1.351-4.029c0.901-1.12,2.027-1.791,3.379-2.015
		c0.823-0.149,3.826,1.026,9.007,3.525c5.178,2.501,7.804,4.235,7.88,5.205c0,0.523-0.076,3.022-0.225,7.5
		c-0.227,5.299-0.338,9.925-0.338,13.878c0,9.701,0.6,18.02,1.8,24.959c2.027-10.297,4.653-20.93,7.881-31.899
		c2.478-8.73,4.392-14.663,5.742-17.796c0.825-3.731,2.815-5.373,5.968-4.925c2.55,0.374,5.327,1.231,8.33,2.575
		C140.978,98.648,143.305,100.59,143.979,102.678z"/>
	<path fill="#130094" d="M205.449,181.25c-0.074,0.671-0.225,2.277-0.449,4.812c-0.076,1.343-0.377,2.351-0.902,3.022
		c-0.376,0.224-1.012,0.336-1.912,0.336c-2.477,0-5.556-0.634-9.232-1.902c-3.979-1.194-6.68-2.611-8.105-4.254
		c-0.602-0.671-1.201-2.909-1.801-6.715c-0.827-4.998-1.765-9.139-2.815-12.423c-2.854,0.374-7.018,1.399-12.496,3.078
		c-5.479,1.679-9.045,3.079-10.695,4.197c-1.126,3.209-2.628,7.163-4.504,11.864c-0.226,1.046-0.469,2.034-0.731,2.966
		c-0.264,0.933-0.92,1.697-1.969,2.294c-0.227,0.149-0.564,0.224-1.014,0.224c-1.802,0-4.824-0.934-9.063-2.799
		c-4.241-1.863-6.437-3.095-6.586-3.693c-0.301-1.043,0.411-3.618,2.14-7.723c2.4-5.968,3.787-9.625,4.165-10.968
		c-1.576-1.567-2.365-3.134-2.365-4.702c0-0.372,0.038-0.783,0.113-1.23c0.149-0.896,2.438-2.5,6.867-4.813l14.523-49.359
		c0.225-0.896,0.263-2.536,0.112-4.925c-0.15-2.015,0.074-3.282,0.676-3.806c0.374-0.373,1.274-0.559,2.701-0.559
		c3.527,0,8.557,0.895,15.088,2.686c6.529,1.79,10.43,3.396,11.707,4.812c0.451,8.282,2.139,20.706,5.066,37.271
		C197.719,159.388,201.547,173.491,205.449,181.25z M176.066,147.225c-0.976-4.701-1.576-7.796-1.802-9.291
		c-0.826-4.998-1.39-10.185-1.688-15.558c-1.502,3.657-3.264,8.73-5.292,15.222c-2.176,6.792-3.339,11.044-3.489,12.76
		C165.22,149.762,169.312,148.718,176.066,147.225z"/>
	<path fill="#130094" d="M270.859,103.237c0.45,3.881-0.45,6.343-2.702,7.387c-1.276,0.599-1.877,0.896-1.802,0.896
		c-4.354,6.642-10.096,18.319-17.224,35.033c-6.681,15.82-10.172,25.334-10.472,28.542c-0.074,0.598,0.075,1.642,0.451,3.133
		c0.375,1.494,0.524,2.725,0.451,3.694c-0.451,5.074-1.729,7.796-3.829,8.171c-1.051,0.148-3.658-0.411-7.823-1.679
		c-4.166-1.27-6.963-2.351-8.388-3.246c-2.553-1.791-3.828-3.582-3.828-5.372c0-0.896,0.263-1.903,0.788-3.022
		c1.051-2.91,3.265-8.878,6.643-17.909c-6.232-12.759-10.434-21.563-12.609-26.414c-4.354-9.699-7.431-17.646-9.231-23.84
		c-0.151-0.373-0.582-0.932-1.296-1.678c-0.713-0.745-1.069-1.417-1.069-2.015c0-1.12,1.465-2.798,4.392-5.037
		c6.229-4.774,10.508-7.013,12.834-6.715c1.2,0.151,2.289,0.934,3.265,2.351c0.825,1.119,1.313,2.126,1.465,3.021
		c0,1.418,0.225,3.694,0.675,6.828c1.726,9.253,5.328,19.29,10.807,30.108c4.203-10.222,6.567-15.855,7.094-16.901
		c2.851-6.341,6.078-12.273,9.683-17.795c0.298-1.193,0.823-2.724,1.575-4.589c1.501-1.716,3.527-2.424,6.079-2.126
		c1.802,0.224,4.561,1.53,8.274,3.917C268.777,100.366,270.709,102.118,270.859,103.237z"/>
	<path fill="#130094" d="M326.586,170.617c0,5.523-1.839,10.055-5.516,13.599c-3.68,3.543-8.782,5.39-15.312,5.54
		c-1.652,0-3.416-0.263-5.292-0.784c-3.452-0.971-5.254-1.455-5.403-1.455c-1.802-0.375-3.622-0.767-5.46-1.176
		c-1.84-0.411-3.434-1.248-4.784-2.518c-2.027-1.791-3.679-4.701-4.954-8.73c-1.575-4.701-2.777-7.648-3.603-8.842
		c-0.602-0.596-1.313-1.64-2.14-3.134c-0.225-1.119-0.02-2.219,0.619-3.302c0.637-1.081,1.407-1.771,2.309-2.07
		c0.45-0.148,1.274-0.224,2.477-0.224c2.625,0,5.834,0.319,9.625,0.951c3.79,0.635,5.911,1.214,6.361,1.735
		c0.45,0.523,1.051,3.209,1.801,8.059c0.677,4.477,1.689,6.978,3.041,7.499c0.299,0.15,0.636,0.224,1.014,0.224
		c1.425,0,2.645-1.175,3.658-3.525c1.013-2.35,1.52-5.018,1.52-8.003c0-6.492-2.026-10.818-6.08-12.983
		c-9.308-4.998-15.836-9.625-19.589-13.879c-4.354-4.924-6.305-10.744-5.854-17.459c0.375-5.597,2.421-11.249,6.137-16.958
		c3.715-5.708,7.635-9.046,11.764-10.017c1.727-0.373,6.98,1.27,15.763,4.925c2.175,0.821,4.37,1.678,6.586,2.574
		c2.213,0.896,3.996,2.202,5.347,3.917c2.101,2.614,3.152,7.127,3.152,13.544c0,1.194-0.039,2.949-0.112,5.26
		c-0.075,2.015-0.113,3.433-0.113,4.253c0.074,0.523,0.339,1.382,0.788,2.574c0.375,0.822,0.525,1.643,0.451,2.463
		c-0.151,3.284-1.539,5.111-4.166,5.484c-1.502,0.224-4.278-0.336-8.331-1.679c-4.503-1.417-7.356-2.947-8.556-4.589
		c-0.151-0.224-0.226-0.969-0.226-2.238c0-1.12,0.13-3.655,0.396-7.611c0.261-3.954,0.393-6.829,0.393-8.618
		c0-3.208-0.375-4.775-1.125-4.701c-2.328,0.149-4.261,1.81-5.799,4.98c-1.539,3.172-2.308,6.771-2.308,10.801
		c0,6.715,1.988,11.492,5.968,14.327c4.503,2.837,9.006,5.671,13.508,8.507c4.279,2.761,7.243,5.522,8.895,8.282
		C325.533,159.2,326.586,164.2,326.586,170.617z"/>
</g>
<g>
	<path fill="#BF0025" d="M472.107,145.995h-31.522v25.743c0,1.046,0.412,2.351,1.239,3.918c0.823,1.566,1.161,2.875,1.012,3.917
		c-0.301,2.239-1.462,4.106-3.488,5.597c-2.027,1.494-4.243,2.238-6.643,2.238c-1.052,0-2.027-0.147-2.928-0.448
		c-1.35-0.448-3.151-1.826-5.403-4.141c-2.252-2.312-4.431-4.589-6.53-6.828c-2.854-2.088-6.079-5.149-9.683-9.178
		c-0.302-0.896-0.151-2.05,0.451-3.47c0.599-1.416,0.9-2.497,0.9-3.245V146.89l-14.861,1.119c-0.752,0-1.614,0.301-2.588,0.896
		c-0.979,0.598-1.768,0.895-2.365,0.895c-0.602,0-1.202-0.146-1.801-0.447c-4.807-2.687-10.66-9.85-17.562-21.491
		c-1.502-2.536-1.878-4.924-1.126-7.163c0.75-2.239,2.774-3.728,6.079-4.477c0.75-0.147,3.828-0.448,9.232-0.896
		c11.856-0.895,19.813-1.343,23.866-1.343V72.571c0-1.192,1.274-2.647,3.829-4.365c2.549-1.714,5.027-2.721,7.43-3.022
		c1.949-0.297,5.703,2.837,11.258,9.401c5.552,6.569,9.007,11.941,10.358,16.118c0.598,2.092,0.9,3.956,0.9,5.596
		c0,1.046-0.265,3.172-0.788,6.379c-0.528,3.211-0.789,6.458-0.789,9.738h15.761c2.552,0,5.929-0.447,10.134-1.343
		c3.45-0.594,5.628-0.819,6.529-0.672c2.251,0.599,4.503,4.218,6.755,10.857c2.252,6.643,3.378,12.424,3.378,17.348
		c0,3.285-1.053,5.45-3.152,6.492C478.638,145.697,476.01,145.995,472.107,145.995z"/>
</g>
<g>
	<path d="M434.565,133.664h-5.517v4.505c0,0.183,0.072,0.412,0.217,0.685c0.144,0.274,0.203,0.503,0.177,0.686
		c-0.052,0.392-0.256,0.719-0.61,0.98s-0.742,0.392-1.162,0.392c-0.185,0-0.354-0.026-0.513-0.079
		c-0.236-0.078-0.551-0.319-0.945-0.725c-0.394-0.405-0.776-0.803-1.143-1.195c-0.499-0.365-1.064-0.901-1.695-1.606
		c-0.053-0.156-0.026-0.358,0.08-0.607c0.104-0.248,0.157-0.437,0.157-0.568v-2.312l-2.601,0.197c-0.131,0-0.283,0.052-0.453,0.157
		c-0.171,0.104-0.31,0.156-0.413,0.156c-0.106,0-0.212-0.025-0.317-0.078c-0.84-0.47-1.864-1.723-3.072-3.761
		c-0.263-0.444-0.328-0.862-0.197-1.254c0.132-0.392,0.486-0.653,1.063-0.783c0.132-0.026,0.671-0.079,1.615-0.157
		c2.075-0.157,3.469-0.234,4.179-0.234v-7.248c0-0.208,0.223-0.463,0.669-0.764c0.445-0.3,0.88-0.476,1.301-0.529
		c0.341-0.052,0.998,0.497,1.97,1.645c0.973,1.15,1.576,2.09,1.812,2.821c0.104,0.366,0.157,0.693,0.157,0.979
		c0,0.183-0.046,0.556-0.138,1.117c-0.093,0.562-0.138,1.13-0.138,1.704h2.758c0.447,0,1.038-0.078,1.773-0.235
		c0.604-0.104,0.985-0.144,1.144-0.118c0.394,0.105,0.787,0.738,1.183,1.9c0.394,1.162,0.591,2.174,0.591,3.036
		c0,0.575-0.186,0.954-0.554,1.136C435.708,133.612,435.248,133.664,434.565,133.664z"/>
</g>
<path fill="#8E814C" d="M32.906,500.343c8.983-3.818,16.753-8.997,24.265-14.005c7.1-4.733,13.806-9.205,19.636-11.085
	c3.664-1.181,7.336-2.369,11.008-3.557c16.133-5.224,32.813-10.624,48.802-15.362c0.64-0.189,1.331-0.392,2.07-0.607
	c8.991-2.609,25.727-7.473,40.019-17.881c19.566-14.251,28.822-34.367,26.764-58.173c-0.529-6.119,6.606-20.668,17.549-28.229
	c4.496-3.107,7.979-5.877,11.051-8.321c6.777-5.39,10.18-8.096,20.131-11.008c17.053-4.993,30.952-8.498,47.523-10.544
	c2.4-0.294,10.172,0.305,15.313,0.701c9.708,0.746,18.876,1.452,25.937,0.316c7.021-1.13,16.243-5.384,35.595-15.125
	c2.018-1.016,4.063-2.046,5.863-2.938c-13.748-5.685-27.406-11.518-39.771-21.403c-0.723-0.577-1.436-1.144-2.144-1.705
	c-2.612,1.189-4.832,2.124-6.184,2.539c-3.008,0.278-11.246-0.356-16.255-0.742c-8.685-0.668-16.888-1.3-23.21-0.519
	c-19.166,2.366-35.367,6.445-53.798,11.841c-17.386,5.09-25.636,11.652-33.615,17.997c-2.714,2.158-5.519,4.389-8.926,6.744
	c-9.732,6.726-18.592,16.527-24.946,27.598c-4.955,8.634-10.603,21.917-9.371,36.154c1.468,16.99-8.986,26.502-38.576,35.099
	c-0.812,0.235-1.572,0.456-2.277,0.666c-16.46,4.878-33.38,10.355-49.743,15.653c-3.657,1.185-7.313,2.367-10.964,3.544
	c-11.055,3.564-20.394,9.791-29.425,15.811c-6.282,4.188-12.217,8.146-17.81,10.521c-4.027,1.712-7.579,3.601-11.097,5.427
	C3.953,470.979,2,472.059,0,472.969V512h7.869c6.256-2.164,11.742-4.997,16.607-7.525C27.46,502.927,30.279,501.46,32.906,500.343z"
	/>
</svg>
