<?xml version="1.0" encoding="utf-8"?>
<!-- Generator: Adobe Illustrator 16.0.0, SVG Export Plug-In . SVG Version: 6.00 Build 0)  -->
<!DOCTYPE svg PUBLIC "-//W3C//DTD SVG 1.1//EN" "http://www.w3.org/Graphics/SVG/1.1/DTD/svg11.dtd">
<svg version="1.1" id="Layer_1" xmlns="http://www.w3.org/2000/svg" xmlns:xlink="http://www.w3.org/1999/xlink" x="0px" y="0px"
	 width="25px" height="25px" viewBox="0 0 25 25" enable-background="new 0 0 25 25" xml:space="preserve">
<path fill="#6B6B66" d="M5.492,17.342c0.226,1.351-1.441,1.63-1.667,0.279c-0.181-1.082,0.025-2.135,0.487-2.212
	C4.772,15.332,5.312,16.261,5.492,17.342z"/>
<path fill="#5D5D5D" d="M21.707,14.629c0.228,1.351-1.439,1.63-1.666,0.279c-0.181-1.081,0.026-2.135,0.487-2.212
	C20.987,12.619,21.526,13.548,21.707,14.629z"/>
<path fill="#4C3704" d="M24.703,14.544c0.062,0.373-0.189,0.727-0.562,0.789L1.708,19.086c-0.373,0.062-0.726-0.189-0.788-0.563l0,0
	c-0.062-0.373,0.189-0.726,0.563-0.788l22.432-3.753C24.288,13.919,24.642,14.171,24.703,14.544L24.703,14.544z"/>
<polygon fill="#6B6B66" points="17.293,22.875 8.231,22.875 12.762,16.974 "/>
</svg>
